<svg viewBox="0 0 97 78" fill="none" xmlns="http://www.w3.org/2000/svg">
<path d="M62.6513 61.6731L48.8244 77.6344C48.7785 77.6874 48.7217 77.7299 48.658 77.759C48.5942 77.7881 48.5249 77.8032 48.4549 77.8032C48.3848 77.8032 48.3155 77.7881 48.2518 77.759C48.188 77.7299 48.1312 77.6874 48.0853 77.6344L34.2852 61.6619C34.201 61.5637 34.1572 61.4371 34.1626 61.3079C34.1679 61.1786 34.2221 61.0562 34.3142 60.9653L40.597 54.7942C40.6876 54.7054 40.8094 54.6557 40.9363 54.6558H55.9712C56.0998 54.6558 56.2232 54.7063 56.315 54.7964L62.6245 60.9943C62.7146 61.0828 62.7675 61.2023 62.7725 61.3284C62.7774 61.4545 62.7341 61.5778 62.6513 61.6731Z" fill="white"/>
<path d="M71.0795 51.8828L67.7171 55.7632C67.6738 55.8132 67.6207 55.8538 67.5611 55.8826C67.5015 55.9113 67.4367 55.9275 67.3706 55.9303C67.3045 55.933 67.2385 55.9221 67.1768 55.8984C67.115 55.8746 67.0588 55.8385 67.0116 55.7922L58.4046 47.3326H38.5338L29.8844 55.8168C29.837 55.8631 29.7806 55.8993 29.7186 55.9231C29.6567 55.9468 29.5906 55.9577 29.5243 55.955C29.458 55.9523 29.393 55.936 29.3332 55.9073C29.2734 55.8785 29.2202 55.8378 29.1767 55.7877L25.8076 51.8895C25.7248 51.7959 25.6814 51.674 25.6864 51.5492C25.6914 51.4244 25.7444 51.3063 25.8344 51.2197L35.8992 41.3334C35.9852 41.2493 36.1005 41.2021 36.2208 41.2017H60.7288C60.8464 41.201 60.9595 41.2467 61.0436 41.3289L71.0616 51.1683C71.1098 51.214 71.1485 51.2688 71.1755 51.3294C71.2025 51.3901 71.2172 51.4555 71.2189 51.5218C71.2205 51.5882 71.2091 51.6543 71.1851 51.7162C71.1612 51.7781 71.1253 51.8347 71.0795 51.8828Z" fill="url(#paint0_linear_71_187)"/>
<path d="M82.9909 38.1318L77.2976 44.7048C77.2536 44.756 77.1996 44.7977 77.1388 44.8271C77.0781 44.8566 77.0119 44.8732 76.9444 44.8759C76.877 44.8786 76.8097 44.8674 76.7467 44.843C76.6838 44.8185 76.6266 44.7814 76.5787 44.7338L63.9462 32.3268H32.9857L20.3175 44.774C20.271 44.8201 20.2155 44.8561 20.1545 44.8797C20.0935 44.9033 20.0283 44.9142 19.9629 44.9114C19.8975 44.9087 19.8334 44.8925 19.7745 44.8639C19.7157 44.8352 19.6634 44.7947 19.6209 44.745L13.9142 38.1474C13.8315 38.0515 13.7885 37.9277 13.7939 37.8012C13.7993 37.6747 13.8527 37.555 13.9432 37.4664L28.9021 22.7821C28.9442 22.7398 28.9943 22.7064 29.0495 22.6837C29.1048 22.6611 29.164 22.6498 29.2236 22.6504H67.7172C67.7759 22.6501 67.8342 22.6613 67.8886 22.6836C67.943 22.7058 67.9925 22.7385 68.0342 22.7799L82.9641 37.4441C83.0552 37.5338 83.1088 37.6549 83.1137 37.7826C83.1187 37.9104 83.0748 38.0353 82.9909 38.1318Z" fill="url(#paint1_linear_71_187)"/>
<path d="M96.8201 22.1705L88.7824 31.4494C88.7377 31.5013 88.6827 31.5434 88.621 31.5732C88.5593 31.6029 88.4921 31.6197 88.4237 31.6224C88.3552 31.6251 88.2869 31.6138 88.2231 31.589C88.1592 31.5642 88.1011 31.5266 88.0523 31.4785L69.4854 13.2442H27.4464L8.86385 31.4941C8.81553 31.5418 8.75794 31.579 8.69464 31.6035C8.63134 31.628 8.56368 31.6393 8.49586 31.6365C8.42804 31.6338 8.3615 31.6172 8.30037 31.5877C8.23923 31.5582 8.18481 31.5165 8.14046 31.4651L0.125164 22.1861C0.0396619 22.0876 -0.00495768 21.9601 0.000438013 21.8298C0.00583371 21.6995 0.0608367 21.5761 0.154189 21.485L21.9071 0.120564C21.9859 0.0434313 22.0916 0.00015899 22.2018 0L74.7099 0C74.8325 0.000454126 74.9502 0.0484792 75.0381 0.13396L96.7955 21.5029C96.884 21.59 96.9358 21.7077 96.9404 21.8318C96.9449 21.9559 96.9019 22.0771 96.8201 22.1705Z" fill="url(#paint2_linear_71_187)"/>
<defs>
<linearGradient id="paint0_linear_71_187" x1="25.6825" y1="48.5985" x2="71.2023" y2="48.5985" gradientUnits="userSpaceOnUse">
<stop stop-color="#36BAF7"/>
<stop offset="1" stop-color="#36BAF7"/>
</linearGradient>
<linearGradient id="paint1_linear_71_187" x1="13.7936" y1="33.7803" x2="83.1137" y2="33.7803" gradientUnits="userSpaceOnUse">
<stop stop-color="#36BAF7"/>
<stop offset="1" stop-color="#36BAF7"/>
</linearGradient>
<linearGradient id="paint2_linear_71_187" x1="0.000134398" y1="15.8185" x2="96.9406" y2="15.8185" gradientUnits="userSpaceOnUse">
<stop stop-color="#36BAF7"/>
<stop offset="1" stop-color="#36BAF7"/>
</linearGradient>
</defs>
</svg>
