<svg id="logo" data-name="Capa 1" xmlns="http://www.w3.org/2000/svg" xmlns:xlink="http://www.w3.org/1999/xlink" viewBox="0 0 434.19 348.48"><defs><style>.cls-1{fill:#fff;}.cls-2{fill:url(#gradient);}.cls-3{fill:url(#gradient-2);}.cls-4{fill:url(#gradient-3);}</style><linearGradient id="gradient" x1="115.03" y1="217.67" x2="318.91" y2="217.67" gradientUnits="userSpaceOnUse"><stop offset="0" stop-color="#36baf7"/><stop offset="1" stop-color="#36baf7"/></linearGradient><linearGradient id="gradient-2" x1="61.78" y1="151.3" x2="372.26" y2="151.3" xlink:href="#gradient"/><linearGradient id="gradient-3" x1="0" y1="70.85" x2="434.19" y2="70.85" xlink:href="#gradient"/></defs><path class="cls-1" d="M280.61,276.23l-61.93,71.49a2.19,2.19,0,0,1-3.31,0l-61.81-71.54a2.29,2.29,0,0,1,.13-3.12l28.14-27.64a2.17,2.17,0,0,1,1.52-.62h67.34a2.2,2.2,0,0,1,1.54.63l28.26,27.76A2.22,2.22,0,0,1,280.61,276.23Z"/><path class="cls-2" d="M318.36,232.38,303.3,249.76a2.17,2.17,0,0,1-3.16.13L261.59,212h-89l-38.74,38a2.18,2.18,0,0,1-3.17-.13l-15.09-17.46a2.17,2.17,0,0,1,.12-3l45.08-44.28a2.07,2.07,0,0,1,1.44-.59H272a2,2,0,0,1,1.41.57l44.87,44.07A2.26,2.26,0,0,1,318.36,232.38Z"/><path class="cls-3" d="M371.71,170.79l-25.5,29.44a2.2,2.2,0,0,1-3.22.13l-56.58-55.57H147.74L91,200.54a2.13,2.13,0,0,1-3.12-.13L62.32,170.86a2.23,2.23,0,0,1,.13-3.05l67-65.77a2,2,0,0,1,1.44-.59H303.3a2,2,0,0,1,1.42.58l66.87,65.68A2.25,2.25,0,0,1,371.71,170.79Z"/><path class="cls-4" d="M433.65,99.3l-36,41.56a2.24,2.24,0,0,1-3.27.13L311.22,59.32H122.93L39.7,141.06a2.22,2.22,0,0,1-3.24-.13L.56,99.37a2.29,2.29,0,0,1,.13-3.14L98.12.54A1.89,1.89,0,0,1,99.44,0H334.62a2.12,2.12,0,0,1,1.47.6l97.45,95.71A2.18,2.18,0,0,1,433.65,99.3Z"/></svg>