<svg width="435" height="349" viewBox="0 0 435 349" fill="none" xmlns="http://www.w3.org/2000/svg">
<g clip-path="url(#clip0_237_2)">
<path d="M280.62 276.23L218.68 347.73C218.475 347.967 218.222 348.157 217.937 348.287C217.652 348.418 217.343 348.485 217.03 348.485C216.717 348.485 216.407 348.418 216.122 348.287C215.838 348.157 215.584 347.967 215.38 347.73L153.57 276.19C153.189 275.752 152.99 275.186 153.012 274.606C153.034 274.027 153.277 273.477 153.69 273.07L181.83 245.43C182.239 245.038 182.783 244.816 183.35 244.81H250.69C251.266 244.81 251.819 245.036 252.23 245.44L280.49 273.2C280.89 273.596 281.125 274.128 281.149 274.689C281.173 275.251 280.984 275.802 280.62 276.23Z" fill="#181C47"/>
<path d="M318.36 232.38L303.31 249.76C303.115 249.984 302.877 250.167 302.609 250.295C302.341 250.424 302.05 250.497 301.753 250.509C301.456 250.521 301.16 250.473 300.883 250.366C300.605 250.26 300.353 250.098 300.14 249.89L261.59 212H172.59L133.85 250C133.638 250.209 133.386 250.372 133.108 250.48C132.831 250.587 132.534 250.636 132.237 250.624C131.94 250.612 131.648 250.538 131.38 250.409C131.112 250.279 130.874 250.096 130.68 249.87L115.59 232.41C115.22 231.991 115.025 231.445 115.048 230.886C115.07 230.327 115.307 229.798 115.71 229.41L160.79 185.13C161.178 184.752 161.698 184.54 162.24 184.54H272C272.528 184.54 273.035 184.748 273.41 185.12L318.28 229.18C318.496 229.385 318.669 229.63 318.79 229.902C318.911 230.173 318.977 230.466 318.984 230.763C318.992 231.061 318.941 231.356 318.833 231.634C318.726 231.911 318.565 232.165 318.36 232.38Z" fill="#181C47"/>
<path d="M371.71 170.79L346.21 200.24C346.012 200.467 345.769 200.651 345.497 200.782C345.225 200.912 344.929 200.985 344.628 200.997C344.327 201.009 344.026 200.96 343.744 200.852C343.463 200.744 343.206 200.58 342.99 200.37L286.41 144.79H147.74L91 200.54C90.7919 200.746 90.5434 200.908 90.2701 201.013C89.9968 201.119 89.7045 201.168 89.4117 201.156C89.1188 201.143 88.8316 201.071 88.5681 200.943C88.3045 200.814 88.0703 200.633 87.88 200.41L62.32 170.86C61.9498 170.43 61.7572 169.876 61.7813 169.309C61.8055 168.743 62.0446 168.207 62.45 167.81L129.45 102.04C129.638 101.85 129.863 101.701 130.11 101.599C130.358 101.498 130.623 101.447 130.89 101.45H303.3C303.833 101.453 304.345 101.66 304.73 102.03L371.59 167.71C372 168.11 372.242 168.653 372.264 169.226C372.286 169.799 372.088 170.359 371.71 170.79Z" fill="#181C47"/>
<path d="M433.66 99.3L397.66 140.86C397.459 141.092 397.213 141.281 396.937 141.414C396.66 141.547 396.36 141.622 396.053 141.635C395.746 141.647 395.441 141.596 395.154 141.485C394.868 141.374 394.608 141.206 394.39 140.99L311.22 59.32H122.93L39.6998 141.06C39.4834 141.274 39.2255 141.44 38.9419 141.55C38.6584 141.66 38.3554 141.71 38.0516 141.698C37.7479 141.686 37.4498 141.611 37.176 141.479C36.9022 141.347 36.6584 141.16 36.4598 140.93L0.559826 99.38C0.17847 98.9361 -0.0202108 98.3641 0.00391951 97.7794C0.0280498 97.1947 0.273193 96.6409 0.689826 96.23L98.1198 0.54C98.4724 0.194526 98.9462 0.000712108 99.4398 0L334.62 0C335.169 0.002034 335.696 0.217135 336.09 0.6L433.54 96.31C433.935 96.7002 434.168 97.2261 434.19 97.7813C434.212 98.3365 434.023 98.8794 433.66 99.3Z" fill="#181C47"/>
</g>
<defs>
<clipPath id="clip0_237_2">
<rect width="434.19" height="348.48" fill="white"/>
</clipPath>
</defs>
</svg>
