<svg id="Capa_1" data-name="Capa 1" xmlns="http://www.w3.org/2000/svg" viewBox="0 0 428.37 247.77"><defs><style>.cls-1{fill:#fff;}.cls-2{fill:#00c9ff;}</style></defs><path class="cls-1" d="M248.17,139.59l-31.3,36.13a1.1,1.1,0,0,1-1.67,0L184,139.57A1.16,1.16,0,0,1,184,138l14.23-14a1.08,1.08,0,0,1,.76-.31h34a1.1,1.1,0,0,1,.78.32l14.28,14A1.11,1.11,0,0,1,248.17,139.59Z"/><path class="cls-1" d="M267.25,117.43l-7.61,8.79a1.11,1.11,0,0,1-1.6.06l-19.48-19.13h-45L174,126.37a1.09,1.09,0,0,1-1.6-.06l-7.63-8.83a1.11,1.11,0,0,1,.06-1.5l22.79-22.37a1,1,0,0,1,.73-.3H243.8a1,1,0,0,1,.71.29l22.68,22.27A1.14,1.14,0,0,1,267.25,117.43Z"/><path class="cls-1" d="M294.21,86.31l-12.89,14.88a1.12,1.12,0,0,1-1.63.06L251.1,73.17H181l-28.69,28.17a1.09,1.09,0,0,1-1.58-.06l-12.9-14.94a1.13,1.13,0,0,1,.06-1.54l33.85-33.23a1,1,0,0,1,.73-.3h87.14a1,1,0,0,1,.72.29l33.79,33.19A1.13,1.13,0,0,1,294.21,86.31Z"/><path class="cls-1" d="M325.51,50.18l-18.19,21a1.14,1.14,0,0,1-1.66.07L263.64,30H168.49l-42.06,41.3a1.12,1.12,0,0,1-1.64-.06l-18.14-21a1.16,1.16,0,0,1,.07-1.59L156,.27a1,1,0,0,1,.67-.27H275.46a1.09,1.09,0,0,1,.75.3l49.24,48.37A1.1,1.1,0,0,1,325.51,50.18Z"/><path class="cls-1" d="M37.77,242.2a27.76,27.76,0,0,1-2.94,1.73,23,23,0,0,1-5,1.86,23.49,23.49,0,0,1-6.37.7,26.65,26.65,0,0,1-9.9-2,21.24,21.24,0,0,1-7.39-5.12,23.09,23.09,0,0,1-4.61-7.46,25,25,0,0,1-1.6-9,28,28,0,0,1,1.63-9.79,22.43,22.43,0,0,1,4.71-7.69,21.48,21.48,0,0,1,7.26-5,23.24,23.24,0,0,1,9.26-1.8,25.46,25.46,0,0,1,8.19,1.22A28.77,28.77,0,0,1,37,202.51l-3.32,7.87A40.1,40.1,0,0,0,29.29,208a14,14,0,0,0-6.11-1.28,13.26,13.26,0,0,0-5.51,1.19A14.44,14.44,0,0,0,13,211.18a15.81,15.81,0,0,0-3.17,5,16.69,16.69,0,0,0-1.15,6.27,19.38,19.38,0,0,0,1,6.44,13.86,13.86,0,0,0,7.75,8.32,15.53,15.53,0,0,0,6.21,1.19,16.15,16.15,0,0,0,6.4-1.16,16.38,16.38,0,0,0,4.23-2.49Z"/><path class="cls-1" d="M43.28,222.61a23.55,23.55,0,0,1,1.82-9.19,24.51,24.51,0,0,1,5.13-7.68,24,24,0,0,1,7.61-5.25,23,23,0,0,1,9.32-1.89,22.81,22.81,0,0,1,9.25,1.89,24.51,24.51,0,0,1,7.65,5.25,25.13,25.13,0,0,1,5.22,7.68,22.73,22.73,0,0,1,1.89,9.19,23,23,0,0,1-1.89,9.32,23.88,23.88,0,0,1-5.22,7.58,24.84,24.84,0,0,1-7.65,5.13,23.29,23.29,0,0,1-9.25,1.85,23.85,23.85,0,0,1-16.93-6.91A23.46,23.46,0,0,1,45.1,232,24,24,0,0,1,43.28,222.61Zm8.64.07a15.77,15.77,0,0,0,1.19,6.11,16.05,16.05,0,0,0,3.29,5,15.17,15.17,0,0,0,11,4.61,14.71,14.71,0,0,0,10.75-4.61,15.9,15.9,0,0,0,3.2-5.06,17.05,17.05,0,0,0,0-12.39,16.14,16.14,0,0,0-3.26-5.09,15.07,15.07,0,0,0-21.77,0,15.58,15.58,0,0,0-3.24,5.09A17.14,17.14,0,0,0,51.92,222.68Z"/><polygon class="cls-1" points="142.51 199.12 142.51 247.77 142.32 247.77 109.04 216.58 109.22 245.98 100.77 245.98 100.77 197.39 101.09 197.39 134.31 228.97 134.13 199.12 142.51 199.12"/><polygon class="cls-1" points="196.8 199.12 196.8 247.77 196.61 247.77 163.33 216.58 163.51 245.98 155.06 245.98 155.06 197.39 155.38 197.39 188.6 228.97 188.42 199.12 196.8 199.12"/><path class="cls-1" d="M209.35,199.12h31.5v8.06H217.67v11.21h20.56v8.13H217.67v11.39h24.08V246h-32.4Z"/><path class="cls-1" d="M286.63,242.2a27.12,27.12,0,0,1-2.95,1.73,23,23,0,0,1-5,1.86,23.44,23.44,0,0,1-6.37.7,26.6,26.6,0,0,1-9.89-2,21.19,21.19,0,0,1-7.4-5.12,23.27,23.27,0,0,1-4.61-7.46,25.21,25.21,0,0,1-1.6-9,28,28,0,0,1,1.64-9.79,22.25,22.25,0,0,1,4.7-7.69,21.42,21.42,0,0,1,7.27-5,23.19,23.19,0,0,1,9.25-1.8,25.46,25.46,0,0,1,8.19,1.22,29.12,29.12,0,0,1,6,2.69l-3.33,7.87a39.18,39.18,0,0,0-4.39-2.43,14,14,0,0,0-6.11-1.28,13.26,13.26,0,0,0-5.51,1.19,14.55,14.55,0,0,0-4.64,3.32,16,16,0,0,0-3.17,5,16.69,16.69,0,0,0-1.15,6.27,19.38,19.38,0,0,0,1,6.44,13.86,13.86,0,0,0,7.75,8.32,15.59,15.59,0,0,0,6.21,1.19,16.27,16.27,0,0,0,10.63-3.65Z"/><path class="cls-1" d="M293,199.12h31.43v8.06H312.68V246h-8.32v-38.8H293Z"/><path class="cls-1" d="M329.14,222.61a23.37,23.37,0,0,1,1.82-9.19,24.48,24.48,0,0,1,5.12-7.68,24.15,24.15,0,0,1,7.62-5.25,23.75,23.75,0,0,1,18.57,0,24.51,24.51,0,0,1,7.65,5.25,25.13,25.13,0,0,1,5.22,7.68,22.89,22.89,0,0,1,1.88,9.19,23.17,23.17,0,0,1-1.88,9.32,23.88,23.88,0,0,1-5.22,7.58,24.84,24.84,0,0,1-7.65,5.13,23.33,23.33,0,0,1-9.25,1.85,23.85,23.85,0,0,1-16.94-6.91A23.43,23.43,0,0,1,331,232,23.81,23.81,0,0,1,329.14,222.61Zm8.64.07a15.8,15.8,0,0,0,4.48,11.14,15.17,15.17,0,0,0,11,4.61A14.76,14.76,0,0,0,364,233.82a16.07,16.07,0,0,0,3.2-5.06,17.05,17.05,0,0,0,0-12.39,16,16,0,0,0-3.27-5.09,15.09,15.09,0,0,0-21.77,0,15.72,15.72,0,0,0-3.23,5.09A16.94,16.94,0,0,0,337.78,222.68Z"/><polygon class="cls-1" points="428.37 199.12 428.37 247.77 428.18 247.77 394.89 216.58 395.08 245.98 386.63 245.98 386.63 197.39 386.95 197.39 420.17 228.97 419.99 199.12 428.37 199.12"/><polygon class="cls-2" points="215.9 123.81 215.9 123.82 215.9 123.81 215.9 123.81"/></svg>